<svg width="500" height="500" viewBox="0 0 500 500" fill="none" xmlns="http://www.w3.org/2000/svg">
<rect width="500" height="500" rx="53" fill="#070707"/>
<path d="M48.8691 343.23V160.857C48.8691 157.049 50.1875 153.777 52.8242 151.043C55.4609 148.309 58.6836 146.941 62.4922 146.941H105.559C108.977 146.941 112.59 148.309 116.398 151.043C120.207 153.777 123.332 157.049 125.773 160.857L214.25 296.941V160.564C214.25 156.756 215.568 153.533 218.205 150.896C220.939 148.26 224.211 146.941 228.02 146.941H253.215C257.023 146.941 260.246 148.26 262.883 150.896C265.617 153.533 266.984 156.854 266.984 160.857V343.23C266.984 347.039 265.617 350.311 262.883 353.045C260.246 355.682 257.023 357 253.215 357H204.582C200.773 357 196.867 355.682 192.863 353.045C188.859 350.311 185.686 347.039 183.342 343.23L102.336 217.547V343.23C102.336 347.039 100.969 350.311 98.2344 353.045C95.5977 355.682 92.375 357 88.5664 357H62.7852C58.9766 357 55.7051 355.682 52.9707 353.045C50.2363 350.311 48.8691 347.039 48.8691 343.23Z" fill="#E7E7E7"/>
<path d="M234.041 303.24C234.041 297.479 235.75 293.377 239.168 290.936C242.586 288.396 245.906 287.127 249.129 287.127H266.561C275.35 287.127 282.039 291.912 286.629 301.482C291.219 311.053 301.521 315.838 317.537 315.838L368.807 316.863C385.994 316.863 394.588 311.248 394.588 300.018C394.588 291.521 384.09 284.832 363.094 279.949C353.719 277.703 343.367 275.506 332.039 273.357C320.711 271.111 309.432 268.328 298.201 265.008C287.068 261.688 276.814 257.781 267.439 253.289C258.064 248.797 250.447 242.645 244.588 234.832C238.826 226.922 235.945 217.645 235.945 207C235.945 187.371 242.928 172.283 256.893 161.736C270.857 151.092 294.881 145.77 328.963 145.77L366.17 146.648C386.189 146.648 404.207 151.824 420.223 162.176C436.336 172.43 444.393 185.271 444.393 200.701C444.393 206.463 442.684 210.613 439.266 213.152C435.848 215.691 432.576 216.961 429.451 216.961H412.02C403.23 216.961 396.541 212.176 391.951 202.605C387.361 192.938 377.059 188.104 361.043 188.104L316.951 187.225C299.764 187.225 291.17 192.84 291.17 204.07C291.17 210.223 296.59 215.252 307.43 219.158C318.367 223.064 331.551 226.531 346.98 229.559C362.508 232.488 378.084 236.053 393.709 240.252C409.334 244.451 422.566 251.385 433.406 261.053C444.344 270.623 449.812 282.586 449.812 296.941C449.812 316.57 442.781 331.707 428.719 342.352C414.754 352.898 390.779 358.172 356.795 358.172L312.41 357.293C292.391 357.293 274.324 352.166 258.211 341.912C242.098 331.561 234.041 318.67 234.041 303.24Z" fill="url(#paint0_linear_2030_8)"/>
<defs>
<linearGradient id="paint0_linear_2030_8" x1="342" y1="87" x2="342" y2="412" gradientUnits="userSpaceOnUse">
<stop stop-color="#FF6E00"/>
<stop offset="1" stop-color="#FFAE00"/>
</linearGradient>
</defs>
</svg>
