<svg width="397" height="63" viewBox="0 0 397 63" fill="none" xmlns="http://www.w3.org/2000/svg">
<path d="M44.0809 54.3662V19.482C44.0809 18.7535 44.3331 18.1278 44.8375 17.6047C45.3418 17.0817 45.9582 16.8202 46.6867 16.8202H54.9244C55.5782 16.8202 56.2694 17.0817 56.9979 17.6047C57.7264 18.1278 58.3241 18.7535 58.7911 19.482L75.7148 45.512V19.426C75.7148 18.6975 75.967 18.0811 76.4713 17.5767C76.9944 17.0724 77.6201 16.8202 78.3486 16.8202H83.168C83.8965 16.8202 84.5129 17.0724 85.0173 17.5767C85.5403 18.0811 85.8018 18.7162 85.8018 19.482V54.3662C85.8018 55.0947 85.5403 55.7204 85.0173 56.2435C84.5129 56.7478 83.8965 57 83.168 57H73.8655C73.137 57 72.3899 56.7478 71.624 56.2435C70.8581 55.7204 70.251 55.0947 69.8027 54.3662L54.308 30.3255V54.3662C54.308 55.0947 54.0465 55.7204 53.5235 56.2435C53.0191 56.7478 52.4027 57 51.6742 57H46.7428C46.0143 57 45.3885 56.7478 44.8655 56.2435C44.3424 55.7204 44.0809 55.0947 44.0809 54.3662ZM95.9168 53.5256C93.0028 50.8357 91.5458 46.8757 91.5458 41.6454C91.5458 36.3964 93.0028 32.4363 95.9168 29.7652C98.8308 27.0753 103.015 25.7304 108.469 25.7304C113.943 25.7304 118.136 27.0753 121.05 29.7652C123.964 32.4363 125.421 36.3964 125.421 41.6454C125.421 46.8757 123.964 50.8357 121.05 53.5256C118.136 56.2155 113.943 57.5604 108.469 57.5604C103.015 57.5604 98.8308 56.2155 95.9168 53.5256ZM103.006 34.3603C101.848 35.8734 101.269 38.2924 101.269 41.6174C101.269 44.9423 101.848 47.3707 103.006 48.9024C104.164 50.4341 105.985 51.2 108.469 51.2C110.973 51.2 112.803 50.4341 113.961 48.9024C115.138 47.3707 115.727 44.9423 115.727 41.6174C115.727 38.2924 115.138 35.8734 113.961 34.3603C112.803 32.8473 110.973 32.0908 108.469 32.0908C105.985 32.0908 104.164 32.8473 103.006 34.3603ZM127.691 28.7565C127.541 28.2708 127.457 27.8692 127.439 27.5516C127.439 26.7297 127.906 26.3094 128.84 26.2907H134.051C134.929 26.2907 135.714 26.5149 136.405 26.9632C137.096 27.3928 137.572 27.9906 137.834 28.7565L142.429 43.8589L146.968 28.7565C147.472 27.1126 148.537 26.2907 150.162 26.2907H155.122C156.766 26.2907 157.83 27.1126 158.316 28.7565L162.855 43.8589L167.45 28.7565C167.712 27.9906 168.188 27.3928 168.879 26.9632C169.57 26.5149 170.355 26.2907 171.233 26.2907H176.445C177.36 26.2907 177.827 26.711 177.846 27.5516C177.846 27.8879 177.761 28.2895 177.593 28.7565L169.103 54.5343C168.842 55.3002 168.375 55.9072 167.702 56.3556C167.03 56.7852 166.311 57 165.545 57H161.594C160.828 57 160.1 56.7758 159.409 56.3275C158.718 55.8605 158.26 55.2628 158.036 54.5343L152.656 37.8347L147.248 54.5343C147.024 55.2628 146.567 55.8605 145.875 56.3275C145.184 56.7758 144.456 57 143.69 57H139.739C138.973 57 138.254 56.7852 137.582 56.3556C136.909 55.9072 136.442 55.3002 136.181 54.5343L127.691 28.7565ZM180.143 46.7169C180.143 45.6148 180.47 44.8302 181.124 44.3633C181.778 43.8776 182.413 43.6347 183.029 43.6347H186.363C188.045 43.6347 189.324 44.55 190.202 46.3807C191.08 48.2113 193.051 49.1266 196.114 49.1266L205.921 49.3227C209.209 49.3227 210.852 48.2486 210.852 46.1005C210.852 44.4753 208.844 43.1958 204.828 42.2618C203.035 41.8322 201.055 41.4119 198.888 41.0009C196.721 40.5713 194.564 40.0389 192.416 39.4038C190.286 38.7687 188.325 38.0215 186.532 37.1623C184.738 36.303 183.281 35.1262 182.16 33.6318C181.058 32.1188 180.507 30.3442 180.507 28.3081C180.507 24.5535 181.843 21.6675 184.514 19.6501C187.185 17.6141 191.78 16.596 198.3 16.596L205.417 16.7642C209.246 16.7642 212.692 17.7542 215.756 19.7342C218.838 21.6956 220.379 24.1519 220.379 27.1033C220.379 28.2054 220.052 28.9993 219.398 29.485C218.744 29.9706 218.119 30.2135 217.521 30.2135H214.187C212.505 30.2135 211.226 29.2982 210.348 27.4676C209.47 25.6183 207.499 24.6936 204.436 24.6936L196.002 24.5255C192.714 24.5255 191.071 25.5996 191.071 27.7478C191.071 28.9246 192.107 29.8866 194.181 30.6338C196.273 31.3809 198.795 32.0441 201.746 32.6231C204.716 33.1835 207.696 33.8653 210.684 34.6685C213.673 35.4718 216.204 36.798 218.277 38.6473C220.37 40.4779 221.416 42.7661 221.416 45.512C221.416 49.2666 220.071 52.162 217.381 54.1981C214.71 56.2155 210.124 57.2242 203.623 57.2242L195.133 57.056C191.304 57.056 187.848 56.0754 184.766 54.114C181.684 52.134 180.143 49.6683 180.143 46.7169ZM241.225 50.9198L245.064 50.5836H246.101C246.605 50.5836 247.016 50.7423 247.334 51.0599C247.67 51.3774 247.838 51.7884 247.838 52.2927V55.2908C247.838 55.7018 247.67 56.0754 247.334 56.4116C247.016 56.7291 246.605 56.9253 246.101 57C244.195 57.3736 241.711 57.5604 238.648 57.5604C230.615 57.5604 226.599 53.3575 226.599 44.9517V18.5574C226.599 18.053 226.758 17.6421 227.076 17.3245C227.412 16.9883 227.823 16.8202 228.308 16.8202H234.585C235.07 16.8202 235.472 16.9883 235.79 17.3245C236.126 17.6421 236.294 18.053 236.294 18.5574V27.9159H244.111C244.597 27.9159 244.999 28.0746 245.316 28.3922C245.652 28.7098 245.821 29.1207 245.821 29.6251V32.9594C245.821 33.4637 245.652 33.8747 245.316 34.1922C244.999 34.5098 244.597 34.6685 244.111 34.6685H236.294V44.9517C236.294 46.857 236.742 48.3327 237.639 49.3787C238.536 50.4061 239.731 50.9198 241.225 50.9198ZM254.787 53.5256C251.873 50.8357 250.416 46.8757 250.416 41.6454C250.416 36.3964 251.873 32.4363 254.787 29.7652C257.701 27.0753 261.885 25.7304 267.339 25.7304C272.813 25.7304 277.006 27.0753 279.92 29.7652C282.834 32.4363 284.291 36.3964 284.291 41.6454C284.291 46.8757 282.834 50.8357 279.92 53.5256C277.006 56.2155 272.813 57.5604 267.339 57.5604C261.885 57.5604 257.701 56.2155 254.787 53.5256ZM261.876 34.3603C260.718 35.8734 260.138 38.2924 260.138 41.6174C260.138 44.9423 260.718 47.3707 261.876 48.9024C263.034 50.4341 264.855 51.2 267.339 51.2C269.843 51.2 271.673 50.4341 272.831 48.9024C274.008 47.3707 274.596 44.9423 274.596 41.6174C274.596 38.2924 274.008 35.8734 272.831 34.3603C271.673 32.8473 269.843 32.0908 267.339 32.0908C264.855 32.0908 263.034 32.8473 261.876 34.3603ZM304.325 57.5604C299.095 57.5604 295.023 56.2155 292.109 53.5256C289.195 50.8357 287.738 46.885 287.738 41.6734C287.738 36.4431 289.185 32.483 292.081 29.7932C294.976 27.0846 299.001 25.7304 304.157 25.7304C309.331 25.7304 313.301 26.5523 316.065 28.1961C318.848 29.8399 320.24 32.2682 320.24 35.4811C320.24 35.9855 320.072 36.3964 319.736 36.714C319.418 37.0315 319.007 37.1903 318.503 37.1903H314.328C313.058 37.1903 311.984 36.5085 311.106 35.1449C310.004 33.389 308.052 32.5111 305.25 32.5111C302.466 32.5111 300.514 33.2302 299.394 34.6685C298.292 36.0882 297.74 38.4138 297.74 41.6454C297.74 44.8769 298.31 47.2119 299.45 48.6502C300.608 50.0885 302.607 50.8077 305.446 50.8077C308.304 50.8077 310.284 49.9298 311.386 48.1739C312.264 46.7916 313.338 46.1005 314.608 46.1005H318.783C319.287 46.1005 319.698 46.2686 320.016 46.6048C320.352 46.9224 320.52 47.324 320.52 47.8096C320.52 51.0225 319.129 53.4509 316.345 55.0947C313.581 56.7385 309.574 57.5604 304.325 57.5604ZM356.077 55.7671C356.077 56.589 355.591 57 354.62 57H349.324C347.531 57 346.102 56.1221 345.037 54.3662L341.479 48.5662C339.947 46.0818 337.724 44.8396 334.81 44.8396V55.2908C334.81 55.7952 334.642 56.2061 334.306 56.5237C333.988 56.8412 333.587 57 333.101 57H326.825C326.32 57 325.909 56.8412 325.592 56.5237C325.274 56.2061 325.115 55.7952 325.115 55.2908V18.5574C325.115 18.053 325.274 17.6421 325.592 17.3245C325.928 16.9883 326.339 16.8202 326.825 16.8202H333.101C333.605 16.8202 334.016 16.9883 334.334 17.3245C334.651 17.6421 334.81 18.053 334.81 18.5574V38.4512C338.06 38.4512 340.283 37.1903 341.479 34.6685L344.169 28.9526C344.542 28.1494 345.093 27.5049 345.822 27.0192C346.55 26.5336 347.335 26.2907 348.175 26.2907H353.471C354.405 26.2907 354.872 26.655 354.872 27.3835C354.872 27.7945 354.723 28.3175 354.424 28.9526L350.809 36.5739C350.193 37.8441 349.352 38.9368 348.287 39.8521C347.223 40.7674 346.074 41.3558 344.841 41.6174C347.139 42.3085 349.128 43.9897 350.809 46.6608L355.573 54.3662C355.89 54.9079 356.058 55.3749 356.077 55.7671Z" fill="url(#paint0_linear_2067_2)"/>
<defs>
<linearGradient id="paint0_linear_2067_2" x1="0" y1="31.1512" x2="396.767" y2="31.1512" gradientUnits="userSpaceOnUse">
<stop stop-color="#FF6E00"/>
<stop offset="1" stop-color="#FFAE00"/>
</linearGradient>
</defs>
</svg>
