<svg width="397" height="63" viewBox="0 0 397 63" fill="none" xmlns="http://www.w3.org/2000/svg">
<path d="M2.00677 54.3662V19.482C2.00677 18.7535 2.25895 18.1278 2.7633 17.6047C3.26765 17.0817 3.88407 16.8202 4.61258 16.8202H12.8503C13.5041 16.8202 14.1952 17.0817 14.9237 17.6047C15.6522 18.1278 16.25 18.7535 16.717 19.482L33.6407 45.512V19.426C33.6407 18.6975 33.8928 18.0811 34.3972 17.5767C34.9202 17.0724 35.546 16.8202 36.2745 16.8202H41.0938C41.8223 16.8202 42.4388 17.0724 42.9431 17.5767C43.4661 18.0811 43.7276 18.7162 43.7276 19.482V54.3662C43.7276 55.0947 43.4661 55.7204 42.9431 56.2435C42.4388 56.7478 41.8223 57 41.0938 57H31.7914C31.0629 57 30.3157 56.7478 29.5498 56.2435C28.784 55.7204 28.1769 55.0947 27.7286 54.3662L12.2339 30.3255V54.3662C12.2339 55.0947 11.9723 55.7204 11.4493 56.2435C10.945 56.7478 10.3285 57 9.60003 57H4.66862C3.94011 57 3.31434 56.7478 2.79132 56.2435C2.26829 55.7204 2.00677 55.0947 2.00677 54.3662ZM53.8427 53.5256C50.9286 50.8357 49.4716 46.8757 49.4716 41.6454C49.4716 36.3964 50.9286 32.4363 53.8427 29.7652C56.7567 27.0753 60.9409 25.7304 66.3953 25.7304C71.8685 25.7304 76.062 27.0753 78.976 29.7652C81.8901 32.4363 83.3471 36.3964 83.3471 41.6454C83.3471 46.8757 81.8901 50.8357 78.976 53.5256C76.062 56.2155 71.8685 57.5604 66.3953 57.5604C60.9409 57.5604 56.7567 56.2155 53.8427 53.5256ZM60.9316 34.3603C59.7734 35.8734 59.1944 38.2924 59.1944 41.6174C59.1944 44.9423 59.7734 47.3707 60.9316 48.9024C62.0897 50.4341 63.911 51.2 66.3953 51.2C68.8984 51.2 70.729 50.4341 71.8871 48.9024C73.064 47.3707 73.6524 44.9423 73.6524 41.6174C73.6524 38.2924 73.064 35.8734 71.8871 34.3603C70.729 32.8473 68.8984 32.0908 66.3953 32.0908C63.911 32.0908 62.0897 32.8473 60.9316 34.3603ZM85.6166 28.7565C85.4672 28.2708 85.3831 27.8692 85.3645 27.5516C85.3645 26.7297 85.8315 26.3094 86.7654 26.2907H91.977C92.855 26.2907 93.6395 26.5149 94.3307 26.9632C95.0218 27.3928 95.4981 27.9906 95.7597 28.7565L100.355 43.8589L104.894 28.7565C105.398 27.1126 106.463 26.2907 108.088 26.2907H113.048C114.691 26.2907 115.756 27.1126 116.242 28.7565L120.781 43.8589L125.376 28.7565C125.638 27.9906 126.114 27.3928 126.805 26.9632C127.496 26.5149 128.281 26.2907 129.159 26.2907H134.37C135.286 26.2907 135.753 26.711 135.771 27.5516C135.771 27.8879 135.687 28.2895 135.519 28.7565L127.029 54.5343C126.768 55.3002 126.301 55.9072 125.628 56.3556C124.956 56.7852 124.237 57 123.471 57H119.52C118.754 57 118.026 56.7758 117.335 56.3275C116.643 55.8605 116.186 55.2628 115.962 54.5343L110.582 37.8347L105.174 54.5343C104.95 55.2628 104.492 55.8605 103.801 56.3275C103.11 56.7758 102.382 57 101.616 57H97.665C96.8991 57 96.18 56.7852 95.5075 56.3556C94.835 55.9072 94.368 55.3002 94.1065 54.5343L85.6166 28.7565ZM138.069 46.7169C138.069 45.6148 138.396 44.8302 139.05 44.3633C139.703 43.8776 140.339 43.6347 140.955 43.6347H144.289C145.97 43.6347 147.25 44.55 148.128 46.3807C149.006 48.2113 150.977 49.1266 154.04 49.1266L163.847 49.3227C167.134 49.3227 168.778 48.2486 168.778 46.1005C168.778 44.4753 166.77 43.1958 162.754 42.2618C160.961 41.8322 158.981 41.4119 156.814 41.0009C154.647 40.5713 152.49 40.0389 150.341 39.4038C148.212 38.7687 146.251 38.0215 144.457 37.1623C142.664 36.303 141.207 35.1262 140.086 33.6318C138.984 32.1188 138.433 30.3442 138.433 28.3081C138.433 24.5535 139.769 21.6675 142.44 19.6501C145.111 17.6141 149.706 16.596 156.226 16.596L163.342 16.7642C167.172 16.7642 170.618 17.7542 173.682 19.7342C176.764 21.6956 178.305 24.1519 178.305 27.1033C178.305 28.2054 177.978 28.9993 177.324 29.485C176.67 29.9706 176.045 30.2135 175.447 30.2135H172.113C170.431 30.2135 169.152 29.2982 168.274 27.4676C167.396 25.6183 165.425 24.6936 162.362 24.6936L153.928 24.5255C150.64 24.5255 148.997 25.5996 148.997 27.7478C148.997 28.9246 150.033 29.8866 152.107 30.6338C154.199 31.3809 156.721 32.0441 159.672 32.6231C162.642 33.1835 165.621 33.8653 168.61 34.6685C171.599 35.4718 174.13 36.798 176.203 38.6473C178.295 40.4779 179.342 42.7661 179.342 45.512C179.342 49.2666 177.997 52.162 175.307 54.1981C172.636 56.2155 168.05 57.2242 161.549 57.2242L153.059 57.056C149.23 57.056 145.774 56.0754 142.692 54.114C139.61 52.134 138.069 49.6683 138.069 46.7169ZM199.151 50.9198L202.99 50.5836H204.027C204.531 50.5836 204.942 50.7423 205.259 51.0599C205.596 51.3774 205.764 51.7884 205.764 52.2927V55.2908C205.764 55.7018 205.596 56.0754 205.259 56.4116C204.942 56.7291 204.531 56.9253 204.027 57C202.121 57.3736 199.637 57.5604 196.573 57.5604C188.541 57.5604 184.525 53.3575 184.525 44.9517V18.5574C184.525 18.053 184.684 17.6421 185.001 17.3245C185.338 16.9883 185.749 16.8202 186.234 16.8202H192.511C192.996 16.8202 193.398 16.9883 193.715 17.3245C194.052 17.6421 194.22 18.053 194.22 18.5574V27.9159H202.037C202.523 27.9159 202.924 28.0746 203.242 28.3922C203.578 28.7098 203.746 29.1207 203.746 29.6251V32.9594C203.746 33.4637 203.578 33.8747 203.242 34.1922C202.924 34.5098 202.523 34.6685 202.037 34.6685H194.22V44.9517C194.22 46.857 194.668 48.3327 195.565 49.3787C196.461 50.4061 197.657 50.9198 199.151 50.9198ZM212.713 53.5256C209.799 50.8357 208.342 46.8757 208.342 41.6454C208.342 36.3964 209.799 32.4363 212.713 29.7652C215.627 27.0753 219.811 25.7304 225.265 25.7304C230.738 25.7304 234.932 27.0753 237.846 29.7652C240.76 32.4363 242.217 36.3964 242.217 41.6454C242.217 46.8757 240.76 50.8357 237.846 53.5256C234.932 56.2155 230.738 57.5604 225.265 57.5604C219.811 57.5604 215.627 56.2155 212.713 53.5256ZM219.802 34.3603C218.643 35.8734 218.064 38.2924 218.064 41.6174C218.064 44.9423 218.643 47.3707 219.802 48.9024C220.96 50.4341 222.781 51.2 225.265 51.2C227.768 51.2 229.599 50.4341 230.757 48.9024C231.934 47.3707 232.522 44.9423 232.522 41.6174C232.522 38.2924 231.934 35.8734 230.757 34.3603C229.599 32.8473 227.768 32.0908 225.265 32.0908C222.781 32.0908 220.96 32.8473 219.802 34.3603ZM262.251 57.5604C257.021 57.5604 252.948 56.2155 250.034 53.5256C247.12 50.8357 245.663 46.885 245.663 41.6734C245.663 36.4431 247.111 32.483 250.006 29.7932C252.902 27.0846 256.927 25.7304 262.083 25.7304C267.257 25.7304 271.226 26.5523 273.991 28.1961C276.774 29.8399 278.166 32.2682 278.166 35.4811C278.166 35.9855 277.998 36.3964 277.662 36.714C277.344 37.0315 276.933 37.1903 276.429 37.1903H272.254C270.984 37.1903 269.91 36.5085 269.032 35.1449C267.929 33.389 265.977 32.5111 263.176 32.5111C260.392 32.5111 258.44 33.2302 257.319 34.6685C256.217 36.0882 255.666 38.4138 255.666 41.6454C255.666 44.8769 256.236 47.2119 257.376 48.6502C258.534 50.0885 260.532 50.8077 263.372 50.8077C266.23 50.8077 268.21 49.9298 269.312 48.1739C270.19 46.7916 271.264 46.1005 272.534 46.1005H276.709C277.213 46.1005 277.624 46.2686 277.942 46.6048C278.278 46.9224 278.446 47.324 278.446 47.8096C278.446 51.0225 277.054 53.4509 274.271 55.0947C271.507 56.7385 267.5 57.5604 262.251 57.5604ZM314.003 55.7671C314.003 56.589 313.517 57 312.546 57H307.25C305.457 57 304.028 56.1221 302.963 54.3662L299.405 48.5662C297.873 46.0818 295.65 44.8396 292.736 44.8396V55.2908C292.736 55.7952 292.568 56.2061 292.232 56.5237C291.914 56.8412 291.512 57 291.027 57H284.75C284.246 57 283.835 56.8412 283.518 56.5237C283.2 56.2061 283.041 55.7952 283.041 55.2908V18.5574C283.041 18.053 283.2 17.6421 283.518 17.3245C283.854 16.9883 284.265 16.8202 284.75 16.8202H291.027C291.531 16.8202 291.942 16.9883 292.26 17.3245C292.577 17.6421 292.736 18.053 292.736 18.5574V38.4512C295.986 38.4512 298.209 37.1903 299.405 34.6685L302.094 28.9526C302.468 28.1494 303.019 27.5049 303.748 27.0192C304.476 26.5336 305.261 26.2907 306.101 26.2907H311.397C312.331 26.2907 312.798 26.655 312.798 27.3835C312.798 27.7945 312.648 28.3175 312.35 28.9526L308.735 36.5739C308.119 37.8441 307.278 38.9368 306.213 39.8521C305.149 40.7674 304 41.3558 302.767 41.6174C305.065 42.3085 307.054 43.9897 308.735 46.6608L313.498 54.3662C313.816 54.9079 313.984 55.3749 314.003 55.7671Z" fill="url(#paint0_linear_2067_2)"/>
<defs>
<linearGradient id="paint0_linear_2067_2" x1="-2" y1="31" x2="315" y2="31" gradientUnits="userSpaceOnUse">
<stop stop-color="#FF6E00"/>
<stop offset="1" stop-color="#FFAE00"/>
</linearGradient>
</defs>
</svg>
