<svg width="313" height="42" viewBox="0 0 313 42" fill="none" xmlns="http://www.w3.org/2000/svg">
<path d="M0.0809309 38.3662V3.48203C0.0809309 2.75353 0.333105 2.12776 0.837455 1.60473C1.3418 1.0817 1.95823 0.820191 2.68673 0.820191H10.9244C11.5782 0.820191 12.2694 1.0817 12.9979 1.60473C13.7264 2.12776 14.3241 2.75353 14.7911 3.48203L31.7148 29.512V3.42599C31.7148 2.69749 31.967 2.08106 32.4713 1.57671C32.9944 1.07237 33.6201 0.820191 34.3486 0.820191H39.168C39.8965 0.820191 40.5129 1.07237 41.0173 1.57671C41.5403 2.08106 41.8018 2.71617 41.8018 3.48203V38.3662C41.8018 39.0947 41.5403 39.7204 41.0173 40.2435C40.5129 40.7478 39.8965 41 39.168 41H29.8655C29.137 41 28.3899 40.7478 27.624 40.2435C26.8581 39.7204 26.251 39.0947 25.8027 38.3662L10.308 14.3255V38.3662C10.308 39.0947 10.0465 39.7204 9.52347 40.2435C9.01912 40.7478 8.40269 41 7.67419 41H2.74277C2.01427 41 1.3885 40.7478 0.865474 40.2435C0.342445 39.7204 0.0809309 39.0947 0.0809309 38.3662ZM51.9168 37.5256C49.0028 34.8357 47.5458 30.8757 47.5458 25.6454C47.5458 20.3964 49.0028 16.4363 51.9168 13.7652C54.8308 11.0753 59.0151 9.73036 64.4695 9.73036C69.9426 9.73036 74.1362 11.0753 77.0502 13.7652C79.9642 16.4363 81.4212 20.3964 81.4212 25.6454C81.4212 30.8757 79.9642 34.8357 77.0502 37.5256C74.1362 40.2155 69.9426 41.5604 64.4695 41.5604C59.0151 41.5604 54.8308 40.2155 51.9168 37.5256ZM59.0057 18.3603C57.8476 19.8734 57.2685 22.2924 57.2685 25.6174C57.2685 28.9423 57.8476 31.3707 59.0057 32.9024C60.1639 34.4341 61.9851 35.2 64.4695 35.2C66.9726 35.2 68.8032 34.4341 69.9613 32.9024C71.1381 31.3707 71.7265 28.9423 71.7265 25.6174C71.7265 22.2924 71.1381 19.8734 69.9613 18.3603C68.8032 16.8473 66.9726 16.0908 64.4695 16.0908C61.9851 16.0908 60.1639 16.8473 59.0057 18.3603ZM83.6908 12.7565C83.5414 12.2708 83.4573 11.8692 83.4386 11.5516C83.4386 10.7297 83.9056 10.3094 84.8396 10.2907H90.0512C90.9291 10.2907 91.7137 10.5149 92.4048 10.9632C93.096 11.3928 93.5723 11.9906 93.8338 12.7565L98.429 27.8589L102.968 12.7565C103.472 11.1126 104.537 10.2907 106.162 10.2907H111.122C112.766 10.2907 113.83 11.1126 114.316 12.7565L118.855 27.8589L123.45 12.7565C123.712 11.9906 124.188 11.3928 124.879 10.9632C125.57 10.5149 126.355 10.2907 127.233 10.2907H132.445C133.36 10.2907 133.827 10.711 133.846 11.5516C133.846 11.8879 133.761 12.2895 133.593 12.7565L125.103 38.5343C124.842 39.3002 124.375 39.9072 123.702 40.3556C123.03 40.7852 122.311 41 121.545 41H117.594C116.828 41 116.1 40.7758 115.409 40.3275C114.718 39.8605 114.26 39.2628 114.036 38.5343L108.656 21.8347L103.248 38.5343C103.024 39.2628 102.567 39.8605 101.875 40.3275C101.184 40.7758 100.456 41 99.6899 41H95.7391C94.9733 41 94.2541 40.7852 93.5816 40.3556C92.9092 39.9072 92.4422 39.3002 92.1807 38.5343L83.6908 12.7565ZM136.143 30.7169C136.143 29.6148 136.47 28.8302 137.124 28.3633C137.778 27.8776 138.413 27.6347 139.029 27.6347H142.363C144.045 27.6347 145.324 28.55 146.202 30.3807C147.08 32.2113 149.051 33.1266 152.114 33.1266L161.921 33.3227C165.209 33.3227 166.852 32.2486 166.852 30.1005C166.852 28.4753 164.844 27.1958 160.828 26.2618C159.035 25.8322 157.055 25.4119 154.888 25.0009C152.721 24.5713 150.564 24.0389 148.416 23.4038C146.286 22.7687 144.325 22.0215 142.532 21.1623C140.738 20.303 139.281 19.1262 138.16 17.6318C137.058 16.1188 136.507 14.3442 136.507 12.3081C136.507 8.55354 137.843 5.66755 140.514 3.65015C143.185 1.61407 147.78 0.596035 154.3 0.596035L161.417 0.764152C165.246 0.764152 168.692 1.75417 171.756 3.73421C174.838 5.69556 176.379 8.15193 176.379 11.1033C176.379 12.2054 176.052 12.9993 175.398 13.485C174.744 13.9706 174.119 14.2135 173.521 14.2135H170.187C168.505 14.2135 167.226 13.2982 166.348 11.4676C165.47 9.61828 163.499 8.69364 160.436 8.69364L152.002 8.52552C148.714 8.52552 147.071 9.5996 147.071 11.7478C147.071 12.9246 148.107 13.8866 150.181 14.6338C152.273 15.3809 154.795 16.0441 157.746 16.6231C160.716 17.1835 163.696 17.8653 166.684 18.6685C169.673 19.4718 172.204 20.798 174.277 22.6473C176.37 24.4779 177.416 26.7661 177.416 29.512C177.416 33.2666 176.071 36.162 173.381 38.1981C170.71 40.2155 166.124 41.2242 159.623 41.2242L151.133 41.056C147.304 41.056 143.848 40.0754 140.766 38.114C137.684 36.134 136.143 33.6683 136.143 30.7169ZM197.225 34.9198L201.064 34.5836H202.101C202.605 34.5836 203.016 34.7423 203.334 35.0599C203.67 35.3774 203.838 35.7884 203.838 36.2927V39.2908C203.838 39.7018 203.67 40.0754 203.334 40.4116C203.016 40.7291 202.605 40.9253 202.101 41C200.195 41.3736 197.711 41.5604 194.648 41.5604C186.615 41.5604 182.599 37.3575 182.599 28.9517V2.55739C182.599 2.05304 182.758 1.64209 183.076 1.32454C183.412 0.988307 183.823 0.820191 184.308 0.820191H190.585C191.07 0.820191 191.472 0.988307 191.79 1.32454C192.126 1.64209 192.294 2.05304 192.294 2.55739V11.9159H200.111C200.597 11.9159 200.999 12.0746 201.316 12.3922C201.652 12.7098 201.821 13.1207 201.821 13.6251V16.9594C201.821 17.4637 201.652 17.8747 201.316 18.1922C200.999 18.5098 200.597 18.6685 200.111 18.6685H192.294V28.9517C192.294 30.857 192.742 32.3327 193.639 33.3787C194.536 34.4061 195.731 34.9198 197.225 34.9198ZM210.787 37.5256C207.873 34.8357 206.416 30.8757 206.416 25.6454C206.416 20.3964 207.873 16.4363 210.787 13.7652C213.701 11.0753 217.885 9.73036 223.339 9.73036C228.813 9.73036 233.006 11.0753 235.92 13.7652C238.834 16.4363 240.291 20.3964 240.291 25.6454C240.291 30.8757 238.834 34.8357 235.92 37.5256C233.006 40.2155 228.813 41.5604 223.339 41.5604C217.885 41.5604 213.701 40.2155 210.787 37.5256ZM217.876 18.3603C216.718 19.8734 216.138 22.2924 216.138 25.6174C216.138 28.9423 216.718 31.3707 217.876 32.9024C219.034 34.4341 220.855 35.2 223.339 35.2C225.843 35.2 227.673 34.4341 228.831 32.9024C230.008 31.3707 230.596 28.9423 230.596 25.6174C230.596 22.2924 230.008 19.8734 228.831 18.3603C227.673 16.8473 225.843 16.0908 223.339 16.0908C220.855 16.0908 219.034 16.8473 217.876 18.3603ZM260.325 41.5604C255.095 41.5604 251.023 40.2155 248.109 37.5256C245.195 34.8357 243.738 30.885 243.738 25.6734C243.738 20.4431 245.185 16.483 248.081 13.7932C250.976 11.0846 255.001 9.73036 260.157 9.73036C265.331 9.73036 269.301 10.5523 272.065 12.1961C274.848 13.8399 276.24 16.2682 276.24 19.4811C276.24 19.9855 276.072 20.3964 275.736 20.714C275.418 21.0315 275.007 21.1903 274.503 21.1903H270.328C269.058 21.1903 267.984 20.5085 267.106 19.1449C266.004 17.389 264.052 16.5111 261.25 16.5111C258.466 16.5111 256.514 17.2302 255.394 18.6685C254.292 20.0882 253.74 22.4138 253.74 25.6454C253.74 28.8769 254.31 31.2119 255.45 32.6502C256.608 34.0885 258.607 34.8077 261.446 34.8077C264.304 34.8077 266.284 33.9298 267.386 32.1739C268.264 30.7916 269.338 30.1005 270.608 30.1005H274.783C275.287 30.1005 275.698 30.2686 276.016 30.6048C276.352 30.9224 276.52 31.324 276.52 31.8096C276.52 35.0225 275.129 37.4509 272.345 39.0947C269.581 40.7385 265.574 41.5604 260.325 41.5604ZM312.077 39.7671C312.077 40.589 311.591 41 310.62 41H305.324C303.531 41 302.102 40.1221 301.037 38.3662L297.479 32.5662C295.947 30.0818 293.724 28.8396 290.81 28.8396V39.2908C290.81 39.7952 290.642 40.2061 290.306 40.5237C289.988 40.8412 289.587 41 289.101 41H282.825C282.32 41 281.909 40.8412 281.592 40.5237C281.274 40.2061 281.115 39.7952 281.115 39.2908V2.55739C281.115 2.05304 281.274 1.64209 281.592 1.32454C281.928 0.988307 282.339 0.820191 282.825 0.820191H289.101C289.605 0.820191 290.016 0.988307 290.334 1.32454C290.651 1.64209 290.81 2.05304 290.81 2.55739V22.4512C294.06 22.4512 296.283 21.1903 297.479 18.6685L300.169 12.9526C300.542 12.1494 301.093 11.5049 301.822 11.0192C302.55 10.5336 303.335 10.2907 304.175 10.2907H309.471C310.405 10.2907 310.872 10.655 310.872 11.3835C310.872 11.7945 310.723 12.3175 310.424 12.9526L306.809 20.5739C306.193 21.8441 305.352 22.9368 304.287 23.8521C303.223 24.7674 302.074 25.3558 300.841 25.6174C303.139 26.3085 305.128 27.9897 306.809 30.6608L311.573 38.3662C311.89 38.9079 312.058 39.3749 312.077 39.7671Z" fill="white" fill-opacity="0.9"/>
</svg>
